<svg width="75" height="93" viewBox="0 0 75 93" fill="none" xmlns="http://www.w3.org/2000/svg">
<path d="M52.4008 17H17.4669L0 46.3712L17.4669 76H52.4008L70 46.5L52.4008 17Z" fill="#FFE99C"/>
<path d="M58.4064 17H25.4688L9 46.3712L25.4688 76H58.4064L75 46.5L58.4064 17Z" fill="#EFCA47"/>
<path d="M56.984 61H43.16V58.444L46.544 55.492V48.616H35.564V57.04L39.704 58.12L38.264 61H24.44V58.444L27.824 55.492V36.7L23.72 35.62L25.16 32.74H38.984V35.296L35.564 38.284V45.232H46.544V36.7L42.44 35.62L43.88 32.74H57.704V35.296L54.284 38.284V57.04L58.424 58.12L56.984 61Z" fill="#A54040"/>
</svg>
